<?xml version="1.0" encoding="UTF-8"?>
<!DOCTYPE svg PUBLIC "-//W3C//DTD SVG 1.1//EN"
    "http://www.w3.org/Graphics/SVG/1.1/DTD/svg11.dtd"><svg xmlns="http://www.w3.org/2000/svg" height="800.0000" stroke-opacity="1" viewBox="0 0 800 800" font-size="1" width="800.0000" xmlns:xlink="http://www.w3.org/1999/xlink" stroke="rgb(0,0,0)" version="1.1"><defs></defs><g stroke-linejoin="miter" stroke-opacity="1.0" fill-opacity="1.0" font-size="22.22222222222222px" stroke="rgb(0,0,0)" stroke-width="3.2" fill="rgb(0,0,0)" stroke-linecap="butt" stroke-miterlimit="10.0"><text dominant-baseline="middle" transform="matrix(1.0000,0.0000,0.0000,1.0000,733.3333,66.6667)" stroke="none" text-anchor="middle">Edit-Actions</text></g><g stroke-linejoin="miter" stroke-opacity="1.0" fill-opacity="0.0" stroke="rgb(0,0,0)" stroke-width="3.2" fill="rgb(0,0,0)" stroke-linecap="butt" stroke-miterlimit="10.0"><path d="M 800.0000,66.6667 c 0.0000,-36.8190 -29.8477,-66.6667 -66.6667 -66.6667c -36.8190,-0.0000 -66.6667,29.8477 -66.6667 66.6667c -0.0000,36.8190 29.8477,66.6667 66.6667 66.6667c 36.8190,0.0000 66.6667,-29.8477 66.6667 -66.6667Z"/></g><g stroke-linejoin="miter" stroke-opacity="1.0" fill-opacity="1.0" font-size="22.22222222222222px" stroke="rgb(0,0,0)" stroke-width="3.2" fill="rgb(0,0,0)" stroke-linecap="butt" stroke-miterlimit="10.0"><text dominant-baseline="middle" transform="matrix(1.0000,0.0000,0.0000,1.0000,733.3333,288.8889)" stroke="none" text-anchor="middle">Editor</text></g><g stroke-linejoin="miter" stroke-opacity="1.0" fill-opacity="0.0" stroke="rgb(0,0,0)" stroke-width="3.2" fill="rgb(0,0,0)" stroke-linecap="butt" stroke-miterlimit="10.0"><path d="M 800.0000,288.8889 c 0.0000,-36.8190 -29.8477,-66.6667 -66.6667 -66.6667c -36.8190,-0.0000 -66.6667,29.8477 -66.6667 66.6667c -0.0000,36.8190 29.8477,66.6667 66.6667 66.6667c 36.8190,0.0000 66.6667,-29.8477 66.6667 -66.6667Z"/></g><g stroke-linejoin="miter" stroke-opacity="1.0" fill-opacity="1.0" font-size="22.22222222222222px" stroke="rgb(0,0,0)" stroke-width="3.2" fill="rgb(0,0,0)" stroke-linecap="butt" stroke-miterlimit="10.0"><text dominant-baseline="middle" transform="matrix(1.0000,0.0000,0.0000,1.0000,733.3333,511.1111)" stroke="none" text-anchor="middle">Concrete Syntax</text></g><g stroke-linejoin="miter" stroke-opacity="1.0" fill-opacity="0.0" stroke="rgb(0,0,0)" stroke-width="3.2" fill="rgb(0,0,0)" stroke-linecap="butt" stroke-miterlimit="10.0"><path d="M 800.0000,511.1111 c 0.0000,-36.8190 -29.8477,-66.6667 -66.6667 -66.6667c -36.8190,-0.0000 -66.6667,29.8477 -66.6667 66.6667c -0.0000,36.8190 29.8477,66.6667 66.6667 66.6667c 36.8190,0.0000 66.6667,-29.8477 66.6667 -66.6667Z"/></g><g stroke-linejoin="miter" stroke-opacity="1.0" fill-opacity="1.0" font-size="22.22222222222222px" stroke="rgb(0,0,0)" stroke-width="3.2" fill="rgb(0,0,0)" stroke-linecap="butt" stroke-miterlimit="10.0"><text dominant-baseline="middle" transform="matrix(1.0000,0.0000,0.0000,1.0000,733.3333,733.3333)" stroke="none" text-anchor="middle">Loc -&gt; Term -&gt; Term</text></g><g stroke-linejoin="miter" stroke-opacity="1.0" fill-opacity="0.0" stroke="rgb(0,0,0)" stroke-width="3.2" fill="rgb(0,0,0)" stroke-linecap="butt" stroke-miterlimit="10.0"><path d="M 800.0000,733.3333 c 0.0000,-36.8190 -29.8477,-66.6667 -66.6667 -66.6667c -36.8190,-0.0000 -66.6667,29.8477 -66.6667 66.6667c -0.0000,36.8190 29.8477,66.6667 66.6667 66.6667c 36.8190,0.0000 66.6667,-29.8477 66.6667 -66.6667Z"/></g><g stroke-linejoin="miter" stroke-opacity="1.0" fill-opacity="1.0" font-size="22.22222222222222px" stroke="rgb(0,0,0)" stroke-width="3.2" fill="rgb(0,0,0)" stroke-linecap="butt" stroke-miterlimit="10.0"><text dominant-baseline="middle" transform="matrix(1.0000,0.0000,0.0000,1.0000,511.1111,66.6667)" stroke="none" text-anchor="middle">Spatial Logic</text></g><g stroke-linejoin="miter" stroke-opacity="1.0" fill-opacity="0.0" stroke="rgb(0,0,0)" stroke-width="3.2" fill="rgb(0,0,0)" stroke-linecap="butt" stroke-miterlimit="10.0"><path d="M 577.7778,66.6667 c 0.0000,-36.8190 -29.8477,-66.6667 -66.6667 -66.6667c -36.8190,-0.0000 -66.6667,29.8477 -66.6667 66.6667c -0.0000,36.8190 29.8477,66.6667 66.6667 66.6667c 36.8190,0.0000 66.6667,-29.8477 66.6667 -66.6667Z"/></g><g stroke-linejoin="miter" stroke-opacity="1.0" fill-opacity="1.0" font-size="22.22222222222222px" stroke="rgb(0,0,0)" stroke-width="3.2" fill="rgb(0,0,0)" stroke-linecap="butt" stroke-miterlimit="10.0"><text dominant-baseline="middle" transform="matrix(1.0000,0.0000,0.0000,1.0000,511.1111,288.8889)" stroke="none" text-anchor="middle">Cursors</text></g><g stroke-linejoin="miter" stroke-opacity="1.0" fill-opacity="0.0" stroke="rgb(0,0,0)" stroke-width="3.2" fill="rgb(0,0,0)" stroke-linecap="butt" stroke-miterlimit="10.0"><path d="M 577.7778,288.8889 c 0.0000,-36.8190 -29.8477,-66.6667 -66.6667 -66.6667c -36.8190,-0.0000 -66.6667,29.8477 -66.6667 66.6667c -0.0000,36.8190 29.8477,66.6667 66.6667 66.6667c 36.8190,0.0000 66.6667,-29.8477 66.6667 -66.6667Z"/></g><g stroke-linejoin="miter" stroke-opacity="1.0" fill-opacity="1.0" font-size="22.22222222222222px" stroke="rgb(0,0,0)" stroke-width="3.2" fill="rgb(0,0,0)" stroke-linecap="butt" stroke-miterlimit="10.0"><text dominant-baseline="middle" transform="matrix(1.0000,0.0000,0.0000,1.0000,511.1111,511.1111)" stroke="none" text-anchor="middle">Type Sensitivity</text></g><g stroke-linejoin="miter" stroke-opacity="1.0" fill-opacity="0.0" stroke="rgb(0,0,0)" stroke-width="3.2" fill="rgb(0,0,0)" stroke-linecap="butt" stroke-miterlimit="10.0"><path d="M 577.7778,511.1111 c 0.0000,-36.8190 -29.8477,-66.6667 -66.6667 -66.6667c -36.8190,-0.0000 -66.6667,29.8477 -66.6667 66.6667c -0.0000,36.8190 29.8477,66.6667 66.6667 66.6667c 36.8190,0.0000 66.6667,-29.8477 66.6667 -66.6667Z"/></g><g stroke-linejoin="miter" stroke-opacity="1.0" fill-opacity="1.0" font-size="22.22222222222222px" stroke="rgb(0,0,0)" stroke-width="3.2" fill="rgb(0,0,0)" stroke-linecap="butt" stroke-miterlimit="10.0"><text dominant-baseline="middle" transform="matrix(1.0000,0.0000,0.0000,1.0000,511.1111,733.3333)" stroke="none" text-anchor="middle">Namespace Sensitivity</text></g><g stroke-linejoin="miter" stroke-opacity="1.0" fill-opacity="0.0" stroke="rgb(0,0,0)" stroke-width="3.2" fill="rgb(0,0,0)" stroke-linecap="butt" stroke-miterlimit="10.0"><path d="M 577.7778,733.3333 c 0.0000,-36.8190 -29.8477,-66.6667 -66.6667 -66.6667c -36.8190,-0.0000 -66.6667,29.8477 -66.6667 66.6667c -0.0000,36.8190 29.8477,66.6667 66.6667 66.6667c 36.8190,0.0000 66.6667,-29.8477 66.6667 -66.6667Z"/></g><g stroke-linejoin="miter" stroke-opacity="1.0" fill-opacity="1.0" font-size="22.22222222222222px" stroke="rgb(0,0,0)" stroke-width="3.2" fill="rgb(0,0,0)" stroke-linecap="butt" stroke-miterlimit="10.0"><text dominant-baseline="middle" transform="matrix(1.0000,0.0000,0.0000,1.0000,288.8889,66.6667)" stroke="none" text-anchor="middle">Location Sensitivity</text></g><g stroke-linejoin="miter" stroke-opacity="1.0" fill-opacity="0.0" stroke="rgb(0,0,0)" stroke-width="3.2" fill="rgb(0,0,0)" stroke-linecap="butt" stroke-miterlimit="10.0"><path d="M 355.5556,66.6667 c 0.0000,-36.8190 -29.8477,-66.6667 -66.6667 -66.6667c -36.8190,-0.0000 -66.6667,29.8477 -66.6667 66.6667c -0.0000,36.8190 29.8477,66.6667 66.6667 66.6667c 36.8190,0.0000 66.6667,-29.8477 66.6667 -66.6667Z"/></g><g stroke-linejoin="miter" stroke-opacity="1.0" fill-opacity="1.0" font-size="22.22222222222222px" stroke="rgb(0,0,0)" stroke-width="3.2" fill="rgb(0,0,0)" stroke-linecap="butt" stroke-miterlimit="10.0"><text dominant-baseline="middle" transform="matrix(1.0000,0.0000,0.0000,1.0000,288.8889,288.8889)" stroke="none" text-anchor="middle">Context Sensitive Rules</text></g><g stroke-linejoin="miter" stroke-opacity="1.0" fill-opacity="0.0" stroke="rgb(0,0,0)" stroke-width="3.2" fill="rgb(0,0,0)" stroke-linecap="butt" stroke-miterlimit="10.0"><path d="M 355.5556,288.8889 c 0.0000,-36.8190 -29.8477,-66.6667 -66.6667 -66.6667c -36.8190,-0.0000 -66.6667,29.8477 -66.6667 66.6667c -0.0000,36.8190 29.8477,66.6667 66.6667 66.6667c 36.8190,0.0000 66.6667,-29.8477 66.6667 -66.6667Z"/></g><g stroke-linejoin="miter" stroke-opacity="1.0" fill-opacity="1.0" font-size="22.22222222222222px" stroke="rgb(0,0,0)" stroke-width="3.2" fill="rgb(0,0,0)" stroke-linecap="butt" stroke-miterlimit="10.0"><text dominant-baseline="middle" transform="matrix(1.0000,0.0000,0.0000,1.0000,288.8889,511.1111)" stroke="none" text-anchor="middle">Production Rules</text></g><g stroke-linejoin="miter" stroke-opacity="1.0" fill-opacity="0.0" stroke="rgb(0,0,0)" stroke-width="3.2" fill="rgb(0,0,0)" stroke-linecap="butt" stroke-miterlimit="10.0"><path d="M 355.5556,511.1111 c 0.0000,-36.8190 -29.8477,-66.6667 -66.6667 -66.6667c -36.8190,-0.0000 -66.6667,29.8477 -66.6667 66.6667c -0.0000,36.8190 29.8477,66.6667 66.6667 66.6667c 36.8190,0.0000 66.6667,-29.8477 66.6667 -66.6667Z"/></g><g stroke-linejoin="miter" stroke-opacity="1.0" fill-opacity="1.0" font-size="22.22222222222222px" stroke="rgb(0,0,0)" stroke-width="3.2" fill="rgb(0,0,0)" stroke-linecap="butt" stroke-miterlimit="10.0"><text dominant-baseline="middle" transform="matrix(1.0000,0.0000,0.0000,1.0000,288.8889,733.3333)" stroke="none" text-anchor="middle">Terms</text></g><g stroke-linejoin="miter" stroke-opacity="1.0" fill-opacity="0.0" stroke="rgb(0,0,0)" stroke-width="3.2" fill="rgb(0,0,0)" stroke-linecap="butt" stroke-miterlimit="10.0"><path d="M 355.5556,733.3333 c 0.0000,-36.8190 -29.8477,-66.6667 -66.6667 -66.6667c -36.8190,-0.0000 -66.6667,29.8477 -66.6667 66.6667c -0.0000,36.8190 29.8477,66.6667 66.6667 66.6667c 36.8190,0.0000 66.6667,-29.8477 66.6667 -66.6667Z"/></g><g stroke-linejoin="miter" stroke-opacity="1.0" fill-opacity="1.0" font-size="22.22222222222222px" stroke="rgb(0,0,0)" stroke-width="3.2" fill="rgb(0,0,0)" stroke-linecap="butt" stroke-miterlimit="10.0"><text dominant-baseline="middle" transform="matrix(1.0000,0.0000,0.0000,1.0000,66.6667,66.6667)" stroke="none" text-anchor="middle">CFGs</text></g><g stroke-linejoin="miter" stroke-opacity="1.0" fill-opacity="0.0" stroke="rgb(0,0,0)" stroke-width="3.2" fill="rgb(0,0,0)" stroke-linecap="butt" stroke-miterlimit="10.0"><path d="M 133.3333,66.6667 c 0.0000,-36.8190 -29.8477,-66.6667 -66.6667 -66.6667c -36.8190,-0.0000 -66.6667,29.8477 -66.6667 66.6667c -0.0000,36.8190 29.8477,66.6667 66.6667 66.6667c 36.8190,0.0000 66.6667,-29.8477 66.6667 -66.6667Z"/></g><g stroke-linejoin="miter" stroke-opacity="1.0" fill-opacity="1.0" font-size="22.22222222222222px" stroke="rgb(0,0,0)" stroke-width="3.2" fill="rgb(0,0,0)" stroke-linecap="butt" stroke-miterlimit="10.0"><text dominant-baseline="middle" transform="matrix(1.0000,0.0000,0.0000,1.0000,66.6667,288.8889)" stroke="none" text-anchor="middle">Semantics</text></g><g stroke-linejoin="miter" stroke-opacity="1.0" fill-opacity="0.0" stroke="rgb(0,0,0)" stroke-width="3.2" fill="rgb(0,0,0)" stroke-linecap="butt" stroke-miterlimit="10.0"><path d="M 133.3333,288.8889 c 0.0000,-36.8190 -29.8477,-66.6667 -66.6667 -66.6667c -36.8190,-0.0000 -66.6667,29.8477 -66.6667 66.6667c -0.0000,36.8190 29.8477,66.6667 66.6667 66.6667c 36.8190,0.0000 66.6667,-29.8477 66.6667 -66.6667Z"/></g><g stroke-linejoin="miter" stroke-opacity="1.0" fill-opacity="1.0" font-size="22.22222222222222px" stroke="rgb(0,0,0)" stroke-width="3.2" fill="rgb(0,0,0)" stroke-linecap="butt" stroke-miterlimit="10.0"><text dominant-baseline="middle" transform="matrix(1.0000,0.0000,0.0000,1.0000,66.6667,511.1111)" stroke="none" text-anchor="middle">Syntax</text></g><g stroke-linejoin="miter" stroke-opacity="1.0" fill-opacity="0.0" stroke="rgb(0,0,0)" stroke-width="3.2" fill="rgb(0,0,0)" stroke-linecap="butt" stroke-miterlimit="10.0"><path d="M 133.3333,511.1111 c 0.0000,-36.8190 -29.8477,-66.6667 -66.6667 -66.6667c -36.8190,-0.0000 -66.6667,29.8477 -66.6667 66.6667c -0.0000,36.8190 29.8477,66.6667 66.6667 66.6667c 36.8190,0.0000 66.6667,-29.8477 66.6667 -66.6667Z"/></g><g stroke-linejoin="miter" stroke-opacity="1.0" fill-opacity="1.0" font-size="22.22222222222222px" stroke="rgb(0,0,0)" stroke-width="3.2" fill="rgb(0,0,0)" stroke-linecap="butt" stroke-miterlimit="10.0"><text dominant-baseline="middle" transform="matrix(1.0000,0.0000,0.0000,1.0000,66.6667,733.3333)" stroke="none" text-anchor="middle">Language</text></g><g stroke-linejoin="miter" stroke-opacity="1.0" fill-opacity="0.0" stroke="rgb(0,0,0)" stroke-width="3.2" fill="rgb(0,0,0)" stroke-linecap="butt" stroke-miterlimit="10.0"><path d="M 133.3333,733.3333 c 0.0000,-36.8190 -29.8477,-66.6667 -66.6667 -66.6667c -36.8190,-0.0000 -66.6667,29.8477 -66.6667 66.6667c -0.0000,36.8190 29.8477,66.6667 66.6667 66.6667c 36.8190,0.0000 66.6667,-29.8477 66.6667 -66.6667Z"/></g></svg>